<svg width="56" height="46" viewBox="0 0 56 46" fill="none" xmlns="http://www.w3.org/2000/svg">
<path d="M28 43C28 29.25 16.75 18 3 18C3 31.75 14.25 43 28 43Z" stroke="white" stroke-width="5" stroke-linecap="round" stroke-linejoin="round"/>
<path d="M22.2464 13.75C17.7464 8.75 12.7464 6 12.7464 6C12.7464 6 10.7464 12.25 11.4964 19.5" stroke="white" stroke-width="5" stroke-linecap="round" stroke-linejoin="round"/>
<path d="M35.5 25.25V23C35.5 12 28 3 28 3C28 3 20.5 12 20.5 23V25.25" stroke="white" stroke-width="5" stroke-linecap="round" stroke-linejoin="round"/>
<path d="M44.5 19.5C45.25 12.25 43.25 6 43.25 6C43.25 6 38.25 8.5 33.75 13.75" stroke="white" stroke-width="5" stroke-linecap="round" stroke-linejoin="round"/>
<path d="M28 43C41.75 43 53 31.75 53 18C39.25 18 28 29.25 28 43Z" stroke="white" stroke-width="5" stroke-linecap="round" stroke-linejoin="round"/>
</svg>
