<svg width="47" height="50" viewBox="0 0 47 50" fill="none" xmlns="http://www.w3.org/2000/svg">
<mask id="path-1-inside-1_1_2338" fill="white">
<path d="M23.4649 0.00108258C24.2848 0.00108258 25.0922 0.0542829 25.8432 0.17946C26.5832 0.27478 27.3132 0.436066 28.0245 0.661392C28.7338 0.874194 29.4369 1.14854 30.1337 1.48443C30.8128 1.80676 31.5106 2.20107 32.2085 2.6298C33.3883 3.38087 34.5493 3.98798 35.7322 4.47304C38.0604 5.40699 40.5232 5.96168 43.0269 6.11599C44.2933 6.20987 45.6046 6.25786 46.9606 6.25994V18.7777C46.9606 21.1539 46.6571 23.4134 46.05 25.556C45.4667 27.6721 44.638 29.7128 43.5809 31.6365C42.5283 33.5576 41.2826 35.3663 39.8631 37.0348C38.4228 38.7419 36.8624 40.3441 35.194 41.8291C33.502 43.3166 31.7224 44.7012 29.8646 45.9756C28.0036 47.2691 26.1322 48.4614 24.2504 49.5525L23.4993 50L22.7482 49.5525C20.8178 48.4352 18.9325 47.242 17.0965 45.9756C15.2287 44.7149 13.4482 43.3296 11.7671 41.8291C10.0997 40.344 8.54041 38.7418 7.10108 37.0348C5.68643 35.3585 4.43523 33.5509 3.36454 31.6365C2.32639 29.7038 1.49861 27.6653 0.895423 25.556C0.288509 23.3481 -0.0126381 21.0674 0.000406247 18.7777V6.25994C1.35649 6.25786 2.66877 6.20987 3.93723 6.11599C5.18814 6.03096 6.43089 5.85208 7.65499 5.58086C8.85357 5.31173 10.0521 4.95497 11.2319 4.47304C12.4559 3.9783 13.6296 3.36735 14.7369 2.64858C16.1138 1.75356 17.5096 1.09325 18.8865 0.658263C20.3696 0.20415 21.914 -0.017538 23.4649 0.00108258ZM43.8124 9.33617C41.4437 9.22024 39.0969 8.82421 36.8213 8.15638C34.5585 7.47964 32.4029 6.4861 30.4185 5.20533C29.3889 4.53127 28.2717 4.00163 27.0981 3.63122C25.9252 3.27747 24.7056 3.10234 23.4805 3.11174C22.2463 3.10421 21.0177 3.27927 19.8347 3.63122C18.6598 3.99059 17.5442 4.52098 16.5238 5.20533C14.5353 6.49181 12.3742 7.48961 10.1053 8.1689C7.88761 8.81356 5.56245 9.20787 3.12984 9.35182V18.7933C3.12984 20.865 3.39897 22.8553 3.93723 24.7643C4.48607 26.6596 5.24167 28.4888 6.19042 30.2189C7.15093 31.9668 8.28311 33.6148 9.5702 35.1383C10.8752 36.6749 12.2678 38.105 13.7699 39.4632C15.272 40.8214 16.8461 42.0794 18.4922 43.2373C20.155 44.3973 21.8178 45.4582 23.4805 46.4199C25.1828 45.4306 26.8419 44.3688 28.4532 43.2373C30.1121 42.0826 31.6947 40.8219 33.1911 39.4632C34.6933 38.105 36.089 36.6749 37.394 35.1383C38.6811 33.6148 39.8133 31.9668 40.7738 30.2189C41.7177 28.4907 42.4621 26.6607 42.9925 24.7643C43.5477 22.8229 43.8238 20.8125 43.8124 18.7933V9.33617Z"/>
</mask>
<path d="M23.4649 0.00108258C24.2848 0.00108258 25.0922 0.0542829 25.8432 0.17946C26.5832 0.27478 27.3132 0.436066 28.0245 0.661392C28.7338 0.874194 29.4369 1.14854 30.1337 1.48443C30.8128 1.80676 31.5106 2.20107 32.2085 2.6298C33.3883 3.38087 34.5493 3.98798 35.7322 4.47304C38.0604 5.40699 40.5232 5.96168 43.0269 6.11599C44.2933 6.20987 45.6046 6.25786 46.9606 6.25994V18.7777C46.9606 21.1539 46.6571 23.4134 46.05 25.556C45.4667 27.6721 44.638 29.7128 43.5809 31.6365C42.5283 33.5576 41.2826 35.3663 39.8631 37.0348C38.4228 38.7419 36.8624 40.3441 35.194 41.8291C33.502 43.3166 31.7224 44.7012 29.8646 45.9756C28.0036 47.2691 26.1322 48.4614 24.2504 49.5525L23.4993 50L22.7482 49.5525C20.8178 48.4352 18.9325 47.242 17.0965 45.9756C15.2287 44.7149 13.4482 43.3296 11.7671 41.8291C10.0997 40.344 8.54041 38.7418 7.10108 37.0348C5.68643 35.3585 4.43523 33.5509 3.36454 31.6365C2.32639 29.7038 1.49861 27.6653 0.895423 25.556C0.288509 23.3481 -0.0126381 21.0674 0.000406247 18.7777V6.25994C1.35649 6.25786 2.66877 6.20987 3.93723 6.11599C5.18814 6.03096 6.43089 5.85208 7.65499 5.58086C8.85357 5.31173 10.0521 4.95497 11.2319 4.47304C12.4559 3.9783 13.6296 3.36735 14.7369 2.64858C16.1138 1.75356 17.5096 1.09325 18.8865 0.658263C20.3696 0.20415 21.914 -0.017538 23.4649 0.00108258ZM43.8124 9.33617C41.4437 9.22024 39.0969 8.82421 36.8213 8.15638C34.5585 7.47964 32.4029 6.4861 30.4185 5.20533C29.3889 4.53127 28.2717 4.00163 27.0981 3.63122C25.9252 3.27747 24.7056 3.10234 23.4805 3.11174C22.2463 3.10421 21.0177 3.27927 19.8347 3.63122C18.6598 3.99059 17.5442 4.52098 16.5238 5.20533C14.5353 6.49181 12.3742 7.48961 10.1053 8.1689C7.88761 8.81356 5.56245 9.20787 3.12984 9.35182V18.7933C3.12984 20.865 3.39897 22.8553 3.93723 24.7643C4.48607 26.6596 5.24167 28.4888 6.19042 30.2189C7.15093 31.9668 8.28311 33.6148 9.5702 35.1383C10.8752 36.6749 12.2678 38.105 13.7699 39.4632C15.272 40.8214 16.8461 42.0794 18.4922 43.2373C20.155 44.3973 21.8178 45.4582 23.4805 46.4199C25.1828 45.4306 26.8419 44.3688 28.4532 43.2373C30.1121 42.0826 31.6947 40.8219 33.1911 39.4632C34.6933 38.105 36.089 36.6749 37.394 35.1383C38.6811 33.6148 39.8133 31.9668 40.7738 30.2189C41.7177 28.4907 42.4621 26.6607 42.9925 24.7643C43.5477 22.8229 43.8238 20.8125 43.8124 18.7933V9.33617Z" fill="white"/>
<path d="M23.4649 0.00108258L23.4199 3.75081L23.4424 3.75108H23.4649V0.00108258ZM25.8432 0.17946L25.2267 3.87844L25.2953 3.88986L25.3642 3.89873L25.8432 0.17946ZM28.0245 0.661392L26.8919 4.23629L26.9193 4.24498L26.9469 4.25324L28.0245 0.661392ZM30.1337 1.48443L28.5054 4.86246L28.5155 4.86735L28.5257 4.87218L30.1337 1.48443ZM32.2085 2.6298L34.2223 -0.533581L34.197 -0.549688L34.1715 -0.565389L32.2085 2.6298ZM35.7322 4.47304L34.3095 7.94267L34.3228 7.9481L34.3361 7.95344L35.7322 4.47304ZM43.0269 6.11599L43.3042 2.37625L43.2809 2.37453L43.2576 2.37309L43.0269 6.11599ZM46.9606 6.25994H50.7106V2.51571L46.9664 2.50995L46.9606 6.25994ZM46.05 25.556L42.442 24.5337L42.4384 24.5466L42.4348 24.5595L46.05 25.556ZM43.5809 31.6365L40.2944 29.8304L40.2922 29.8345L43.5809 31.6365ZM39.8631 37.0348L37.0069 34.6048L37.0019 34.6107L36.9969 34.6166L39.8631 37.0348ZM35.194 41.8291L37.67 44.6454L37.6786 44.6379L37.6871 44.6302L35.194 41.8291ZM29.8646 45.9756L27.7433 42.8832L27.7338 42.8897L27.7243 42.8963L29.8646 45.9756ZM24.2504 49.5525L22.3693 46.3084L22.35 46.3196L22.3309 46.331L24.2504 49.5525ZM23.4993 50L21.5798 53.2215L23.4993 54.3652L25.4188 53.2215L23.4993 50ZM22.7482 49.5525L24.6677 46.331L24.6473 46.3188L24.6267 46.3069L22.7482 49.5525ZM17.0965 45.9756L19.2258 42.8887L19.2102 42.8779L19.1944 42.8673L17.0965 45.9756ZM11.7671 41.8291L14.2642 39.0314L14.2612 39.0288L11.7671 41.8291ZM7.10108 37.0348L9.96799 34.6175L9.96692 34.6162L7.10108 37.0348ZM3.36454 31.6365L0.0609815 33.411L0.0760823 33.4391L0.0916592 33.467L3.36454 31.6365ZM0.895423 25.556L-2.72045 26.55L-2.71535 26.5685L-2.71005 26.5871L0.895423 25.556ZM0.000406247 18.7777L3.75035 18.799L3.75041 18.7883V18.7777H0.000406247ZM0.000406247 6.25994L-0.00536298 2.50995L-3.74959 2.51571V6.25994H0.000406247ZM3.93723 6.11599L3.68291 2.37462L3.67167 2.37539L3.66044 2.37622L3.93723 6.11599ZM7.65499 5.58086L8.4662 9.24208L8.47657 9.23975L7.65499 5.58086ZM11.2319 4.47304L9.82657 0.996311L9.81385 1.00151L11.2319 4.47304ZM14.7369 2.64858L16.7786 5.79404L16.7806 5.79274L14.7369 2.64858ZM18.8865 0.658263L17.7886 -2.9274L17.7727 -2.92255L17.7569 -2.91755L18.8865 0.658263ZM43.8124 9.33617H47.5624V5.76523L43.9958 5.59066L43.8124 9.33617ZM36.8213 8.15638L35.7468 11.7491L35.756 11.7519L35.7653 11.7546L36.8213 8.15638ZM30.4185 5.20533L28.3644 8.34276L28.3747 8.34944L28.3849 8.35606L30.4185 5.20533ZM27.0981 3.63122L28.2269 0.0551264L28.2039 0.0478898L28.1809 0.0409478L27.0981 3.63122ZM23.4805 3.11174L23.4577 6.86167L23.4835 6.86182L23.5093 6.86163L23.4805 3.11174ZM19.8347 3.63122L18.7654 0.0369169L18.7516 0.0410142L18.7379 0.045217L19.8347 3.63122ZM16.5238 5.20533L18.5607 8.35387L18.5868 8.33703L18.6125 8.31977L16.5238 5.20533ZM10.1053 8.1689L11.1521 11.7698L11.1665 11.7657L11.1809 11.7613L10.1053 8.1689ZM3.12984 9.35182L2.90831 5.60837L-0.620163 5.81717V9.35182H3.12984ZM3.93723 24.7643L0.327964 25.782L0.331545 25.7947L0.335214 25.8073L3.93723 24.7643ZM6.19042 30.2189L2.90236 32.022L2.90392 32.0248L6.19042 30.2189ZM9.5702 35.1383L6.70557 37.5583L6.71193 37.5658L9.5702 35.1383ZM18.4922 43.2373L16.3347 46.3045L16.3407 46.3087L16.3467 46.3129L18.4922 43.2373ZM23.4805 46.4199L21.6029 49.666L23.4849 50.7546L25.3647 49.6622L23.4805 46.4199ZM28.4532 43.2373L26.3108 40.1595L26.3045 40.1639L26.2981 40.1684L28.4532 43.2373ZM33.1911 39.4632L30.6761 36.6816L30.6703 36.6869L33.1911 39.4632ZM37.394 35.1383L40.2523 37.5658L40.2586 37.5583L37.394 35.1383ZM40.7738 30.2189L44.0603 32.0248L44.0648 32.0165L40.7738 30.2189ZM42.9925 24.7643L39.3871 23.7332L39.3841 23.7437L39.3811 23.7542L42.9925 24.7643ZM43.8124 18.7933H40.0624V18.8039L40.0625 18.8144L43.8124 18.7933ZM23.4649 0.00108258V3.75108C24.1315 3.75108 24.726 3.79497 25.2267 3.87844L25.8432 0.17946L26.4597 -3.51952C25.4584 -3.68641 24.4381 -3.74892 23.4649 -3.74892V0.00108258ZM25.8432 0.17946L25.3642 3.89873C25.8825 3.96549 26.3937 4.07846 26.8919 4.23629L28.0245 0.661392L29.157 -2.9135C28.2327 -3.20633 27.284 -3.41593 26.3223 -3.53981L25.8432 0.17946ZM28.0245 0.661392L26.9469 4.25324C27.4591 4.40691 27.9784 4.60842 28.5054 4.86246L30.1337 1.48443L31.762 -1.89359C30.8954 -2.31134 30.0085 -2.65852 29.102 -2.93046L28.0245 0.661392ZM30.1337 1.48443L28.5257 4.87218C29.0425 5.11749 29.6165 5.43854 30.2455 5.825L32.2085 2.6298L34.1715 -0.565389C33.4048 -1.03639 32.583 -1.50396 31.7417 -1.90331L30.1337 1.48443ZM32.2085 2.6298L30.1947 5.79319C31.5452 6.65293 32.9032 7.366 34.3095 7.94267L35.7322 4.47304L37.155 1.00341C36.1955 0.609954 35.2314 0.108801 34.2223 -0.533581L32.2085 2.6298ZM35.7322 4.47304L34.3361 7.95344C37.0362 9.03661 39.8925 9.67992 42.7963 9.85889L43.0269 6.11599L43.2576 2.37309C41.1539 2.24344 39.0846 1.77737 37.1284 0.992641L35.7322 4.47304ZM43.0269 6.11599L42.7497 9.85573C44.1123 9.95674 45.5143 10.0077 46.9549 10.0099L46.9606 6.25994L46.9664 2.50995C45.6949 2.50799 44.4744 2.46301 43.3042 2.37625L43.0269 6.11599ZM46.9606 6.25994H43.2106V18.7777H46.9606H50.7106V6.25994H46.9606ZM46.9606 18.7777H43.2106C43.2106 20.8314 42.9488 22.7452 42.442 24.5337L46.05 25.556L49.6579 26.5783C50.3654 24.0816 50.7106 21.4765 50.7106 18.7777H46.9606ZM46.05 25.556L42.4348 24.5595C41.9292 26.3939 41.2108 28.1629 40.2944 29.8304L43.5809 31.6365L46.8673 33.4426C48.0652 31.2628 49.0042 28.9504 49.6652 26.5525L46.05 25.556ZM43.5809 31.6365L40.2922 29.8345C39.362 31.5321 38.2613 33.1305 37.0069 34.6048L39.8631 37.0348L42.7193 39.4647C44.3039 37.6022 45.6945 35.583 46.8695 33.4384L43.5809 31.6365ZM39.8631 37.0348L36.9969 34.6166C35.6717 36.1873 34.236 37.6615 32.7008 39.0279L35.194 41.8291L37.6871 44.6302C39.4889 43.0266 41.1739 41.2965 42.7292 39.453L39.8631 37.0348ZM35.194 41.8291L32.718 39.0127C31.1386 40.4012 29.4775 41.6936 27.7433 42.8832L29.8646 45.9756L31.9858 49.0679C33.9673 47.7088 35.8654 46.2319 37.67 44.6454L35.194 41.8291ZM29.8646 45.9756L27.7243 42.8963C25.944 44.1338 24.1589 45.2707 22.3693 46.3084L24.2504 49.5525L26.1314 52.7966C28.1054 51.652 30.0632 50.4043 32.0048 49.0548L29.8646 45.9756ZM24.2504 49.5525L22.3309 46.331L21.5798 46.7785L23.4993 50L25.4188 53.2215L26.1698 52.774L24.2504 49.5525ZM23.4993 50L25.4188 46.7785L24.6677 46.331L22.7482 49.5525L20.8287 52.774L21.5798 53.2215L23.4993 50ZM22.7482 49.5525L24.6267 46.3069C22.782 45.2392 20.9803 44.0989 19.2258 42.8887L17.0965 45.9756L14.9672 49.0624C16.8846 50.385 18.8537 51.6313 20.8698 52.7981L22.7482 49.5525ZM17.0965 45.9756L19.1944 42.8673C17.4666 41.7011 15.8194 40.4195 14.2642 39.0314L11.7671 41.8291L9.26998 44.6267C11.077 46.2396 12.9909 47.7287 14.9985 49.0838L17.0965 45.9756ZM11.7671 41.8291L14.2612 39.0288C12.7271 37.6623 11.2923 36.1881 9.96799 34.6175L7.10108 37.0348L4.23417 39.4521C5.78848 41.2955 7.47233 43.0256 9.2729 44.6294L11.7671 41.8291ZM7.10108 37.0348L9.96692 34.6162C8.70638 33.1225 7.59148 31.5118 6.63743 29.806L3.36454 31.6365L0.0916592 33.467C1.27898 35.5899 2.66648 37.5945 4.23524 39.4533L7.10108 37.0348ZM3.36454 31.6365L6.66811 29.862C5.75689 28.1656 5.03033 26.3764 4.5009 24.525L0.895423 25.556L-2.71005 26.5871C-2.03311 28.9543 -1.10411 31.242 0.0609815 33.411L3.36454 31.6365ZM0.895423 25.556L4.5113 24.5621C3.99529 22.6849 3.73925 20.7458 3.75035 18.799L0.000406247 18.7777L-3.74953 18.7563C-3.76453 21.389 -3.41828 24.0114 -2.72045 26.55L0.895423 25.556ZM0.000406247 18.7777H3.75041V6.25994H0.000406247H-3.74959V18.7777H0.000406247ZM0.000406247 6.25994L0.00617547 10.0099C1.44681 10.0077 2.84968 9.95674 4.21402 9.85576L3.93723 6.11599L3.66044 2.37622C2.48785 2.46301 1.26618 2.50799 -0.00536298 2.50995L0.000406247 6.25994ZM3.93723 6.11599L4.19155 9.85736C5.62983 9.75959 7.05873 9.55391 8.46619 9.24207L7.65499 5.58086L6.84379 1.91965C5.80304 2.15024 4.74644 2.30233 3.68291 2.37462L3.93723 6.11599ZM7.65499 5.58086L8.47657 9.23975C9.8444 8.93262 11.2468 8.51777 12.65 7.94457L11.2319 4.47304L9.81385 1.00151C8.85747 1.39218 7.86273 1.69084 6.83341 1.92196L7.65499 5.58086ZM11.2319 4.47304L12.6373 7.94974C14.0834 7.36518 15.4702 6.6433 16.7786 5.79404L14.7369 2.64858L12.6952 -0.496874C11.7889 0.0913937 10.8283 0.591417 9.82658 0.996334L11.2319 4.47304ZM14.7369 2.64858L16.7806 5.79274C17.894 5.06904 18.9842 4.56007 20.0161 4.23408L18.8865 0.658263L17.7569 -2.91755C16.0349 -2.37356 14.3337 -1.56192 12.6932 -0.495582L14.7369 2.64858ZM18.8865 0.658263L19.9845 4.24393C21.0973 3.90318 22.2561 3.73684 23.4199 3.75081L23.4649 0.00108258L23.5099 -3.74865C21.5718 -3.77192 19.6418 -3.49489 17.7886 -2.9274L18.8865 0.658263ZM43.8124 9.33617L43.9958 5.59066C41.9227 5.48919 39.8689 5.1426 37.8773 4.55813L36.8213 8.15638L35.7653 11.7546C38.325 12.5058 40.9646 12.9513 43.6291 13.0817L43.8124 9.33617ZM36.8213 8.15638L37.8958 4.56362C35.9719 3.98824 34.1392 3.14353 32.452 2.05459L30.4185 5.20533L28.3849 8.35606C30.6665 9.82868 33.1451 10.971 35.7468 11.7491L36.8213 8.15638ZM30.4185 5.20533L32.4725 2.06789C31.156 1.20599 29.7275 0.528759 28.2269 0.0551264L27.0981 3.63122L25.9694 7.20732C26.8159 7.4745 27.6218 7.85655 28.3644 8.34276L30.4185 5.20533ZM27.0981 3.63122L28.1809 0.0409478C26.6476 -0.421499 25.0533 -0.650432 23.4518 -0.638153L23.4805 3.11174L23.5093 6.86163C24.358 6.85512 25.2028 6.97644 26.0154 7.2215L27.0981 3.63122ZM23.4805 3.11174L23.5034 -0.638193C21.8994 -0.64797 20.3028 -0.420472 18.7654 0.0369169L19.8347 3.63122L20.9041 7.22553C21.7327 6.97901 22.5932 6.8564 23.4577 6.86167L23.4805 3.11174ZM19.8347 3.63122L18.7379 0.045217C17.211 0.512244 15.7612 1.20152 14.4351 2.09088L16.5238 5.20533L18.6125 8.31977C19.3272 7.84044 20.1086 7.46894 20.9316 7.21723L19.8347 3.63122ZM16.5238 5.20533L14.4868 2.05678C12.7962 3.15057 10.9588 3.99891 9.02979 4.57645L10.1053 8.1689L11.1809 11.7613C13.7896 10.9803 16.2744 9.83305 18.5607 8.35387L16.5238 5.20533ZM10.1053 8.1689L9.05859 4.56795C7.12413 5.13027 5.07674 5.48005 2.90831 5.60837L3.12984 9.35182L3.35136 13.0953C6.04816 12.9357 8.6511 12.4968 11.1521 11.7698L10.1053 8.1689ZM3.12984 9.35182H-0.620163V18.7933H3.12984H6.87984V9.35182H3.12984ZM3.12984 18.7933H-0.620163C-0.620163 21.1937 -0.307756 23.5274 0.327964 25.782L3.93723 24.7643L7.5465 23.7466C7.10569 22.1833 6.87984 20.5363 6.87984 18.7933H3.12984ZM3.93723 24.7643L0.335214 25.8073C0.960525 27.9667 1.82141 30.0508 2.90236 32.022L6.19042 30.2189L9.47848 28.4158C8.66193 26.9267 8.01161 25.3524 7.53925 23.7212L3.93723 24.7643ZM6.19042 30.2189L2.90392 32.0248C3.98432 33.9909 5.25783 35.8446 6.70558 37.5583L9.5702 35.1383L12.4348 32.7183C11.3084 31.3849 10.3175 29.9427 9.47692 28.4129L6.19042 30.2189ZM9.5702 35.1383L6.71193 37.5658C8.12721 39.2323 9.6351 40.7802 11.2549 42.2448L13.7699 39.4632L16.2849 36.6816C14.9004 35.4298 13.6231 34.1175 12.4285 32.7108L9.5702 35.1383ZM13.7699 39.4632L11.2549 42.2448C12.8695 43.7047 14.563 45.0582 16.3347 46.3045L18.4922 43.2373L20.6497 40.1701C19.1293 39.1006 17.6745 37.938 16.2849 36.6816L13.7699 39.4632ZM18.4922 43.2373L16.3467 46.3129C18.0915 47.5301 19.8436 48.6484 21.6029 49.666L23.4805 46.4199L25.3581 43.1738C23.7919 42.2679 22.2184 41.2644 20.6378 40.1617L18.4922 43.2373ZM23.4805 46.4199L25.3647 49.6622C27.1598 48.619 28.9092 47.4993 30.6083 46.3062L28.4532 43.2373L26.2981 40.1684C24.7746 41.2383 23.2059 42.2423 21.5963 43.1777L23.4805 46.4199ZM28.4532 43.2373L30.5955 46.3151C32.387 45.0681 34.096 43.7068 35.712 42.2395L33.1911 39.4632L30.6703 36.6869C29.2934 37.9371 27.8372 39.097 26.3108 40.1595L28.4532 43.2373ZM33.1911 39.4632L35.7062 42.2448C37.3238 40.7822 38.8352 39.2344 40.2523 37.5658L37.394 35.1383L34.5357 32.7108C33.3428 34.1154 32.0627 35.4279 30.6761 36.6816L33.1911 39.4632ZM37.394 35.1383L40.2586 37.5583C41.7064 35.8446 42.9799 33.9909 44.0603 32.0248L40.7738 30.2189L37.4873 28.4129C36.6466 29.9427 35.6558 31.3849 34.5294 32.7183L37.394 35.1383ZM40.7738 30.2189L44.0648 32.0165C45.1451 30.0387 45.9969 27.9446 46.6039 25.7744L42.9925 24.7643L39.3811 23.7542C38.9273 25.3768 38.2904 26.9426 37.4827 28.4213L40.7738 30.2189ZM42.9925 24.7643L46.598 25.7954C47.251 23.5119 47.5757 21.1472 47.5624 18.7722L43.8124 18.7933L40.0625 18.8144C40.0718 20.4777 39.8444 22.1339 39.3871 23.7332L42.9925 24.7643ZM43.8124 18.7933H47.5624V9.33617H43.8124H40.0624V18.7933H43.8124Z" fill="white" mask="url(#path-1-inside-1_1_2338)"/>
<mask id="path-3-inside-2_1_2338" fill="white">
<path fill-rule="evenodd" clip-rule="evenodd" d="M35.1291 14.7376L33.7521 13.5547L32.4816 13.6642L18.8373 29.7745L14.1901 23.1401L12.9383 22.9273L11.4894 23.9632L11.2734 25.2149L17.2475 33.7458L17.9266 34.1213L19.3568 34.2089L20.089 33.8897L35.2198 16.005L35.1291 14.7376Z"/>
</mask>
<path fill-rule="evenodd" clip-rule="evenodd" d="M35.1291 14.7376L33.7521 13.5547L32.4816 13.6642L18.8373 29.7745L14.1901 23.1401L12.9383 22.9273L11.4894 23.9632L11.2734 25.2149L17.2475 33.7458L17.9266 34.1213L19.3568 34.2089L20.089 33.8897L35.2198 16.005L35.1291 14.7376Z" fill="white"/>
<path d="M35.1291 14.7376L38.8695 14.4698L38.7579 12.9113L37.5728 11.8931L35.1291 14.7376ZM33.7521 13.5547L36.1958 10.7102L35.0003 9.68318L33.4301 9.81854L33.7521 13.5547ZM32.4816 13.6642L32.1595 9.92808L30.6192 10.0609L29.62 11.2406L32.4816 13.6642ZM18.8373 29.7745L15.7658 31.926L18.5559 35.9091L21.6989 32.1981L18.8373 29.7745ZM14.1901 23.1401L17.2615 20.9887L16.3628 19.7057L14.8185 19.4432L14.1901 23.1401ZM12.9383 22.9273L13.5668 19.2304L12.0275 18.9687L10.7574 19.8767L12.9383 22.9273ZM11.4894 23.9632L9.30848 20.9126L8.05573 21.8082L7.79395 23.3257L11.4894 23.9632ZM11.2734 25.2149L7.57802 24.5775L7.31533 26.1003L8.20174 27.366L11.2734 25.2149ZM17.2475 33.7458L14.1758 35.8969L14.6735 36.6076L15.4328 37.0274L17.2475 33.7458ZM17.9266 34.1213L16.1119 37.403L16.8525 37.8125L17.6973 37.8643L17.9266 34.1213ZM19.3568 34.2089L19.1274 37.9519L20.028 38.0071L20.8552 37.6465L19.3568 34.2089ZM20.089 33.8897L21.5875 37.3273L22.3879 36.9784L22.9519 36.3118L20.089 33.8897ZM35.2198 16.005L38.0827 18.4271L39.0694 17.2609L38.9603 15.7372L35.2198 16.005ZM35.1291 14.7376L37.5728 11.8931L36.1958 10.7102L33.7521 13.5547L31.3085 16.3992L32.6854 17.5821L35.1291 14.7376ZM33.7521 13.5547L33.4301 9.81854L32.1595 9.92808L32.4816 13.6642L32.8037 17.4004L34.0742 17.2908L33.7521 13.5547ZM32.4816 13.6642L29.62 11.2406L15.9757 27.3509L18.8373 29.7745L21.6989 32.1981L35.3432 16.0878L32.4816 13.6642ZM18.8373 29.7745L21.9087 27.6231L17.2615 20.9887L14.1901 23.1401L11.1186 25.2916L15.7658 31.926L18.8373 29.7745ZM14.1901 23.1401L14.8185 19.4432L13.5668 19.2304L12.9383 22.9273L12.3098 26.6243L13.5616 26.8371L14.1901 23.1401ZM12.9383 22.9273L10.7574 19.8767L9.30848 20.9126L11.4894 23.9632L13.6703 27.0138L15.1192 25.9779L12.9383 22.9273ZM11.4894 23.9632L7.79395 23.3257L7.57802 24.5775L11.2734 25.2149L14.9689 25.8524L15.1848 24.6006L11.4894 23.9632ZM11.2734 25.2149L8.20174 27.366L14.1758 35.8969L17.2475 33.7458L20.3192 31.5947L14.3451 23.0639L11.2734 25.2149ZM17.2475 33.7458L15.4328 37.0274L16.1119 37.403L17.9266 34.1213L19.7413 30.8397L19.0623 30.4641L17.2475 33.7458ZM17.9266 34.1213L17.6973 37.8643L19.1274 37.9519L19.3568 34.2089L19.5861 30.4659L18.1559 30.3783L17.9266 34.1213ZM19.3568 34.2089L20.8552 37.6465L21.5875 37.3273L20.089 33.8897L18.5906 30.4521L17.8583 30.7713L19.3568 34.2089ZM20.089 33.8897L22.9519 36.3118L38.0827 18.4271L35.2198 16.005L32.357 13.583L17.2262 31.4677L20.089 33.8897ZM35.2198 16.005L38.9603 15.7372L38.8695 14.4698L35.1291 14.7376L31.3887 15.0054L31.4794 16.2729L35.2198 16.005Z" fill="white" mask="url(#path-3-inside-2_1_2338)"/>
</svg>
