<svg width="53" height="50" viewBox="0 0 53 50" fill="none" xmlns="http://www.w3.org/2000/svg">
<path d="M37.71 8.23242L37.9844 8.69531L38.5088 8.81445L46.0352 10.5234L45.3271 18.2188L45.2773 18.7529L45.6309 19.1562L50.7217 24.9766L45.6289 30.8213L45.2773 31.2246L45.3271 31.7578L46.0352 39.4521L38.5088 41.1621L37.9844 41.2812L37.71 41.7441L33.7695 48.3936L26.6836 45.3516L26.1885 45.1387L25.6943 45.3525L18.6104 48.415L14.6719 41.7451L14.3975 41.2812L13.8721 41.1621L6.34473 39.4521L7.05469 31.7334L7.10352 31.1992L6.75 30.7959L1.66016 24.9756L6.75 19.1562L7.10352 18.7529L7.05469 18.2188L6.34473 10.502L13.8691 8.81445L14.3955 8.69629L14.6709 8.23242L18.6104 1.58105L25.6973 4.625L26.1904 4.83691L26.6836 4.625L33.7695 1.58105L37.71 8.23242ZM31.8135 4.87695L27.5771 6.70898L26.1865 7.30664L24.7812 6.70996H24.7822L20.5439 4.87695L19.5312 4.43848L18.9707 5.38965L16.6162 9.38477L15.8428 10.6846L14.3672 11.0186L9.84277 12.043L8.77344 12.2852L8.87402 13.377L9.30273 17.9961L9.30371 18.0039L9.30469 18.0107L9.46191 19.5205L8.48145 20.6602L5.41504 24.1787L4.69629 25.0029L5.41797 25.8242L8.48145 29.3145V29.3154L9.4668 30.46L9.32715 31.9541V31.957L8.89844 36.624L8.79785 37.7148L9.86719 37.957L14.3906 38.9814L15.8662 39.3145L16.6396 40.6152L18.9961 44.5898L19.5576 45.5371L20.5674 45.0996L24.8037 43.2676L26.1934 42.6689L27.5986 43.2656V43.2666L31.8369 45.0996L32.8496 45.5381L33.4102 44.5869L35.7676 40.5869L35.7666 40.5859L36.5371 39.291L38.0137 38.957L42.5381 37.9336L43.6074 37.6914L43.5068 36.5996L43.0781 31.9561V31.9541L42.9365 30.459L43.9209 29.3164L43.9219 29.3174L46.9697 25.7939L47.6816 24.9697L46.9629 24.1514L43.8916 20.6514L42.9131 19.5146L43.0537 18.0215L43.0547 18.0195L43.4824 13.377L43.584 12.2852L42.5137 12.043L37.9902 11.0186L36.5137 10.6846L35.7402 9.38477L33.3867 5.38965L32.8262 4.43848L31.8135 4.87695Z" fill="white" stroke="white" stroke-width="2.5"/>
<path d="M37.3535 18.7119L21.6406 34.4668L14.3564 27.1641L16.1182 25.3906L20.7559 30.0479L21.6406 30.9375L22.5264 30.0488L35.5918 16.9385L37.3535 18.7119Z" fill="white" stroke="white" stroke-width="2.5"/>
</svg>
