<svg width="50" height="47" viewBox="0 0 50 47" fill="none" xmlns="http://www.w3.org/2000/svg">
<path d="M45 1.25C46.0404 1.25 46.9008 1.60603 47.6484 2.35352C48.396 3.10104 48.7512 3.96036 48.75 4.99805V35C48.75 36.0412 48.3937 36.9019 47.6475 37.6494C46.9026 38.3955 46.0437 38.7512 45.002 38.75H9.48242L3.36621 44.8662C3.10854 45.1239 2.89821 45.2183 2.73633 45.25C2.57526 45.2815 2.34921 45.2729 2.02148 45.1328C1.69385 44.9928 1.52371 44.8327 1.42773 44.6855C1.33106 44.5372 1.24947 44.3102 1.25 43.9395V5C1.25 3.95953 1.60652 3.10022 2.35352 2.35449C3.05486 1.65445 3.85484 1.29783 4.80859 1.25488L5.00195 1.25H45ZM3.75 40.7842L5.87402 38.7061L8.38477 36.25H46.25V3.75H3.75V40.7842ZM25.1846 10C25.5255 10.0013 25.8454 10.065 26.1533 10.1904C26.3732 10.28 26.5848 10.4058 26.7891 10.5752L26.9912 10.7588L29.1924 13.082V13.083C29.4501 13.3715 29.6533 13.6777 29.8066 14.0029C29.9402 14.2863 29.999 14.5546 30 14.8174C30.001 15.0971 29.9446 15.409 29.8066 15.7607C29.683 16.076 29.4981 16.3593 29.2412 16.6162L17.4883 28.3691C17.355 28.5033 17.2167 28.5926 17.0693 28.6514C16.9015 28.7183 16.7352 28.75 16.5625 28.75H12.4971C12.1077 28.7509 11.8378 28.6327 11.6035 28.3984C11.3692 28.164 11.25 27.8927 11.25 27.5V23.4375C11.25 23.2673 11.2815 23.102 11.3486 22.9336C11.4078 22.7854 11.4979 22.6447 11.6338 22.5088L23.3799 10.7627C23.6399 10.505 23.9249 10.3195 24.2402 10.1953C24.5892 10.0579 24.9017 10.0004 25.1846 10ZM37.5 26.25C37.8928 26.25 38.1623 26.3695 38.3945 26.6025C38.6292 26.838 38.7491 27.1103 38.75 27.5029C38.7509 27.8923 38.6327 28.1622 38.3984 28.3965C38.164 28.6308 37.8927 28.75 37.5 28.75H25.9551L28.4551 26.25H37.5ZM12.5 23.3574V27.5H16.6426L24.1602 19.9824L23.3662 19.1016L22.1973 17.8027L20.8984 16.6338L20.0176 15.8398L12.5 23.3574Z" fill="white" stroke="white" stroke-width="2.5"/>
</svg>
